<?xml version="1.0" ?><svg id="Icons" viewBox="0 0 24 24" xmlns="http://www.w3.org/2000/svg" xmlns:xlink="http://www.w3.org/1999/xlink"><defs><style>.cls-1{fill:url(#linear-gradient);}.cls-2{fill:#ffb;}.cls-3{fill:url(#linear-gradient-2);}</style><linearGradient gradientUnits="userSpaceOnUse" id="linear-gradient" x1="12" x2="12" y1="1.277" y2="22.983"><stop offset="0" stop-color="#fff650"/><stop offset="1" stop-color="#ffab17"/></linearGradient><linearGradient gradientUnits="userSpaceOnUse" id="linear-gradient-2" x1="10" x2="10" y1="12.447" y2="19.673"><stop offset="0" stop-color="#17cc1b"/><stop offset="1" stop-color="#0faa0f"/></linearGradient></defs><path class="cls-1" d="M18,23H6a3,3,0,0,1-3-3V4A3,3,0,0,1,6,1h5.343a4,4,0,0,1,2.829,1.172l5.656,5.656A4,4,0,0,1,21,10.657V20A3,3,0,0,1,18,23Z"/><path class="cls-2" d="M20.64,9H16a3,3,0,0,1-3-3V1.36a4.089,4.089,0,0,1,1.17.81l5.66,5.66A4.089,4.089,0,0,1,20.64,9Z"/><path class="cls-3" d="M13,15H11V13a1,1,0,0,0-2,0v2H7a1,1,0,0,0,0,2H9v2a1,1,0,0,0,2,0V17h2a1,1,0,0,0,0-2Z"/></svg>