<svg viewBox="0 0 300 300" xml:space="preserve" xmlns="http://www.w3.org/2000/svg"><path d="M151.338 14.798C76.78 14.798 16.34 75.24 16.34 149.797c0 74.562 60.44 135.001 134.998 135.001 74.557 0 135.005-60.439 135.005-135.001 0-74.557-60.448-134.999-135.005-134.999zm0 250.91c-64.014 0-115.909-51.897-115.909-115.911 0-64.013 51.895-115.91 115.909-115.91 64.017 0 115.91 51.897 115.91 115.91 0 64.014-51.894 115.911-115.91 115.911z" fill="#dfba18" class="fill-efc849"></path><path d="M255.77 149.797c0 57.677-46.756 104.433-104.432 104.433-57.675 0-104.426-46.756-104.426-104.433 0-57.674 46.751-104.428 104.426-104.428 57.676 0 104.432 46.754 104.432 104.428z" fill="#dfba18" class="fill-efc849"></path><g fill="#FFFFFF" class="fill-ffffff"><path d="M151.338 88.713c14.31 0 25.916 11.603 25.916 25.917 0 14.314-11.606 25.915-25.916 25.915-14.316 0-25.917-11.601-25.917-25.915 0-14.314 11.6-25.917 25.917-25.917zM203.415 210.883H99.264v-28.824c0-19.443 15.754-35.205 35.207-35.205h33.739c19.443 0 35.205 15.762 35.205 35.205v28.824z"></path></g></svg>