<?xml version="1.0" ?><svg height="400px" version="1.1" viewBox="0 0 400 400" width="400px" xmlns="http://www.w3.org/2000/svg" xmlns:xlink="http://www.w3.org/1999/xlink"><title/><desc/><defs><circle cx="200" cy="100" id="path-1" r="40"/><filter filterUnits="objectBoundingBox" height="200%" id="filter-2" width="200%" x="-50%" y="-50%"><feOffset dx="0" dy="4" in="SourceAlpha" result="shadowOffsetOuter1"/><feGaussianBlur in="shadowOffsetOuter1" result="shadowBlurOuter1" stdDeviation="2"/><feColorMatrix in="shadowBlurOuter1" type="matrix" values="0 0 0 0 0   0 0 0 0 0   0 0 0 0 0  0 0 0 0.5 0"/></filter><circle cx="120" cy="110" id="path-3" r="30"/><filter filterUnits="objectBoundingBox" height="200%" id="filter-4" width="200%" x="-50%" y="-50%"><feOffset dx="0" dy="4" in="SourceAlpha" result="shadowOffsetOuter1"/><feGaussianBlur in="shadowOffsetOuter1" result="shadowBlurOuter1" stdDeviation="2"/><feColorMatrix in="shadowBlurOuter1" type="matrix" values="0 0 0 0 0   0 0 0 0 0   0 0 0 0 0  0 0 0 0.5 0"/></filter><path d="M260,193.99923 C260,191.790516 261.745313,189.563672 263.885602,189.028599 L336.114398,170.971401 C338.260357,170.434911 340,171.795681 340,174.006556 L340,225.993444 C340,228.206204 338.254687,229.563672 336.114398,229.028599 L263.885602,210.971401 C261.739643,210.434911 260,208.207532 260,206.00077 L260,193.99923 Z" id="path-5"/><filter filterUnits="objectBoundingBox" height="200%" id="filter-6" width="200%" x="-50%" y="-50%"><feOffset dx="0" dy="4" in="SourceAlpha" result="shadowOffsetOuter1"/><feGaussianBlur in="shadowOffsetOuter1" result="shadowBlurOuter1" stdDeviation="2"/><feColorMatrix in="shadowBlurOuter1" type="matrix" values="0 0 0 0 0   0 0 0 0 0   0 0 0 0 0  0 0 0 0.5 0"/></filter><rect height="100" id="path-7" rx="8" width="170" x="80" y="150"/><filter filterUnits="objectBoundingBox" height="200%" id="filter-8" width="200%" x="-50%" y="-50%"><feOffset dx="0" dy="4" in="SourceAlpha" result="shadowOffsetOuter1"/><feGaussianBlur in="shadowOffsetOuter1" result="shadowBlurOuter1" stdDeviation="2"/><feColorMatrix in="shadowBlurOuter1" type="matrix" values="0 0 0 0 0   0 0 0 0 0   0 0 0 0 0  0 0 0 0.5 0"/></filter><path d="M128.738255,259.805053 C129.597311,256.599011 132.87905,254.692739 136.089906,255.553085 L143.816039,257.623296 C147.017187,258.481041 148.915096,261.778123 148.056771,264.981434 L127.873976,340.304652 C127.014919,343.510694 123.733181,345.416967 120.522325,344.55662 L112.796192,342.486409 C109.595044,341.628664 107.697135,338.331583 108.555459,335.128271 L128.738255,259.805053 L128.738255,259.805053 Z" id="path-9"/><filter filterUnits="objectBoundingBox" height="200%" id="filter-10" width="200%" x="-50%" y="-50%"><feOffset dx="0" dy="4" in="SourceAlpha" result="shadowOffsetOuter1"/><feGaussianBlur in="shadowOffsetOuter1" result="shadowBlurOuter1" stdDeviation="2"/><feColorMatrix in="shadowBlurOuter1" type="matrix" values="0 0 0 0 0   0 0 0 0 0   0 0 0 0 0  0 0 0 0.5 0"/></filter><path d="M199.873976,259.805053 C199.014919,256.599011 195.733181,254.692739 192.522325,255.553085 L184.796192,257.623296 C181.595044,258.481041 179.697135,261.778123 180.555459,264.981434 L200.738255,340.304652 C201.597311,343.510694 204.87905,345.416967 208.089906,344.55662 L215.816039,342.486409 C219.017187,341.628664 220.915096,338.331583 220.056771,335.128271 L199.873976,259.805053 L199.873976,259.805053 Z" id="path-11"/><filter filterUnits="objectBoundingBox" height="200%" id="filter-12" width="200%" x="-50%" y="-50%"><feOffset dx="0" dy="4" in="SourceAlpha" result="shadowOffsetOuter1"/><feGaussianBlur in="shadowOffsetOuter1" result="shadowBlurOuter1" stdDeviation="2"/><feColorMatrix in="shadowBlurOuter1" type="matrix" values="0 0 0 0 0   0 0 0 0 0   0 0 0 0 0  0 0 0 0.5 0"/></filter><rect height="60" id="path-13" width="130" x="100" y="170"/><filter filterUnits="objectBoundingBox" height="200%" id="filter-14" width="200%" x="-50%" y="-50%"><feOffset dx="0" dy="2" in="SourceAlpha" result="shadowOffsetOuter1"/><feGaussianBlur in="shadowOffsetOuter1" result="shadowBlurOuter1" stdDeviation="1"/><feColorMatrix in="shadowBlurOuter1" type="matrix" values="0 0 0 0 0   0 0 0 0 0   0 0 0 0 0  0 0 0 0.5 0"/></filter></defs><g fill="none" fill-rule="evenodd" id="Page-1" stroke="none" stroke-width="1"><g id="camera"><path d="M200,400 C310.45695,400 400,310.45695 400,200 C400,89.54305 310.45695,0 200,0 C89.54305,0 0,89.54305 0,200 C0,310.45695 89.54305,400 200,400 Z" fill="#AAD8B0" id="Oval-6"/><g id="Oval-68"><use fill="black" fill-opacity="1" filter="url(#filter-2)" xlink:href="#path-1"/><use fill="#D98383" fill-rule="evenodd" xlink:href="#path-1"/></g><g id="Oval-67"><use fill="black" fill-opacity="1" filter="url(#filter-4)" xlink:href="#path-3"/><use fill="#D98383" fill-rule="evenodd" xlink:href="#path-3"/></g><g id="Rectangle-58"><use fill="black" fill-opacity="1" filter="url(#filter-6)" xlink:href="#path-5"/><use fill="#FBF0B8" fill-rule="evenodd" xlink:href="#path-5"/></g><g id="Rectangle-57"><use fill="black" fill-opacity="1" filter="url(#filter-8)" xlink:href="#path-7"/><use fill="#697F9B" fill-rule="evenodd" xlink:href="#path-7"/></g><g id="Rectangle-59"><use fill="black" fill-opacity="1" filter="url(#filter-10)" xlink:href="#path-9"/><use fill="#697F9B" fill-rule="evenodd" xlink:href="#path-9"/></g><g id="Rectangle-59-Copy"><use fill="black" fill-opacity="1" filter="url(#filter-12)" xlink:href="#path-11"/><use fill="#697F9B" fill-rule="evenodd" xlink:href="#path-11"/></g><g id="Rectangle-61"><use fill="black" fill-opacity="1" filter="url(#filter-14)" xlink:href="#path-13"/><use fill="#67ADD5" fill-rule="evenodd" xlink:href="#path-13"/></g></g></g></svg>