<svg viewBox="0 0 48 48" xmlns="http://www.w3.org/2000/svg"><defs><linearGradient gradientUnits="userSpaceOnUse" id="a" x1="24" x2="24" y1="12.49" y2="30.82"><stop offset="0" stop-color="#ffe100" class="stop-color-ffe100"></stop><stop offset="1" stop-color="#dfba18" class="stop-color-edaa00"></stop></linearGradient></defs><path d="m25.71 9.23 3.64 7.37a1.89 1.89 0 0 0 1.43 1l8.13 1.18A1.91 1.91 0 0 1 40 22.07l-5.89 5.74a1.9 1.9 0 0 0-.55 1.68l1.39 8.1a1.9 1.9 0 0 1-2.76 2l-7.27-3.83a1.91 1.91 0 0 0-1.77 0l-7.31 3.84a1.9 1.9 0 0 1-2.76-2l1.39-8.1a1.9 1.9 0 0 0-.55-1.68L8 22.07a1.91 1.91 0 0 1 1.06-3.25l8.13-1.18a1.92 1.92 0 0 0 1.44-1l3.63-7.37a1.91 1.91 0 0 1 3.45-.04Z" data-name="Layer 3" fill="url(#a)" class="fillurl(-a)"></path></svg>